<svg width="80" height="80" viewBox="0 0 80 80" fill="none" xmlns="http://www.w3.org/2000/svg">
<path d="M55.3746 17.3804C55.9467 17.3804 56.4953 17.153 56.8998 16.7485C57.3043 16.344 57.5315 15.7956 57.5315 15.2236V10.6223C57.5201 8.68986 56.7465 6.83999 55.3787 5.47485C54.0108 4.10972 52.1593 3.33958 50.2268 3.33203H23.8556C21.9373 3.35101 20.1044 4.12856 18.7573 5.49451C17.4102 6.86046 16.6584 8.70389 16.6661 10.6223V69.3319C16.6657 71.2521 17.4186 73.0962 18.7629 74.4674C20.1072 75.8386 21.9357 76.6277 23.8556 76.6654H50.2412C52.175 76.6502 54.0248 75.8734 55.3896 74.5032C56.7543 73.1331 57.524 71.2801 57.5315 69.3463V64.8314C57.5315 64.2594 57.3043 63.7109 56.8998 63.3064C56.4953 62.9019 55.9467 62.6745 55.3746 62.6745C54.8026 62.6745 54.254 62.9019 53.8495 63.3064C53.445 63.7109 53.2178 64.2594 53.2178 64.8314V69.4039C53.2103 70.1961 52.8932 70.9542 52.3343 71.5158C51.7755 72.0774 51.019 72.398 50.2268 72.4092H23.8844C23.0924 72.4016 22.3353 72.0817 21.7779 71.5189C21.2205 70.9562 20.908 70.1959 20.908 69.4039V10.6799C20.9076 9.90762 21.2073 9.16514 21.7439 8.60974C22.2805 8.05435 23.012 7.72944 23.7838 7.70333H29.8805C29.9028 8.26028 30.1398 8.78682 30.5419 9.17283C30.944 9.55885 31.48 9.77428 32.0374 9.77383H41.9302C42.4851 9.77058 43.0174 9.55355 43.4164 9.16792C43.8154 8.78228 44.0505 8.2578 44.0727 7.70333H50.155C50.9435 7.71076 51.6977 8.02617 52.2566 8.58236C52.8155 9.13855 53.1346 9.8915 53.1458 10.6799V15.2811C53.1532 15.5657 53.2169 15.846 53.3331 16.1058C53.4493 16.3656 53.616 16.5997 53.8232 16.7949C54.0303 16.99 54.2741 17.1423 54.5404 17.2428C54.8066 17.3433 55.0902 17.39 55.3746 17.3804V17.3804Z" fill="#999999"/>
<path d="M56.6397 21.9101C54.2811 21.5713 51.8788 21.7025 49.5711 22.2956C47.2633 22.8886 45.0956 23.9319 43.1926 25.3659C41.2896 26.7998 39.689 28.5958 38.4827 30.6506C37.2764 32.7054 36.4884 34.9783 36.1639 37.3388C35.6089 41.1187 36.242 44.9779 37.9756 48.3822L34.3809 58.2749C34.3809 58.2749 40.1325 55.8879 43.1952 54.6657C45.5881 56.4871 48.4024 57.6743 51.3769 58.1169C53.7356 58.4576 56.1385 58.3279 58.447 57.7356C60.7555 57.1434 62.924 56.1003 64.8274 54.6661C66.7308 53.2318 68.3316 51.435 69.5373 49.3792C70.743 47.3235 71.5299 45.0495 71.8527 42.6882C72.5763 37.9176 71.3826 33.0543 68.5321 29.1611C65.6816 25.2679 61.4061 22.661 56.6397 21.9101V21.9101ZM62.2331 46.5704L58.1637 49.7338L53.9796 44.0829L50.0253 49.7338L45.8409 46.628L50.0253 41.2931L43.8998 39.5245L45.5964 34.5494L51.4918 36.6058V30.322H56.5245V36.6343L62.4201 34.3338L64.1167 39.1938L57.8618 41.2503L62.2331 46.5704Z" fill="#990AE3"/>
</svg>
