<svg xmlns="http://www.w3.org/2000/svg" viewBox="0 0 632.51 127.56"><defs><style>.cls-1,.cls-2{fill:#990ae3;}.cls-2{fill-rule:evenodd;}</style></defs><g id="LOGO"><path class="cls-1" d="M500.78,92.83H448.43c2.88,10.88,11.84,16.65,23,16.65,9.29,0,15.69-5,18.09-8l7.13,4.2a8.24,8.24,0,0,1,.73,13.76,44.37,44.37,0,0,1-25.95,8.13c-26.88,0-44.64-17.92-44.64-42.57,0-25.44,19-42.57,41.44-42.57s40.44,15.23,40.78,42.06A8.28,8.28,0,0,1,500.78,92.83Zm-12-15.68c-2.08-10.56-9.28-16.64-20.17-16.64-9.92,0-17.76,6.24-20.16,16.64Z"/><path class="cls-1" d="M211.33,85c0,23.69-18.4,42.57-42.89,42.57-24.32,0-42.73-18.88-42.73-42.57s18.41-42.57,42.73-42.57C192.93,42.42,211.33,61.15,211.33,85Zm-20.8,0c0-12.64-8.48-23-22.09-23-13.44,0-21.92,10.4-21.92,23S155,108,168.44,108C182.05,108,190.53,97.63,190.53,85Z"/><path class="cls-1" d="M334.9,13.46V117.23a8.25,8.25,0,0,1-8.25,8.25H314.57V116c-5.28,6.56-13.28,11.52-25.92,11.52-25.13,0-39.53-21.28-39.53-42.57s14.4-42.57,39.53-42.57c12.64,0,20.64,4.8,25.92,11.52V21.71a8.25,8.25,0,0,1,8.25-8.25ZM313.61,85c0-12.48-7.84-23-21.76-23s-21.93,10.56-21.93,23,8,23.05,21.93,23.05S313.61,97.47,313.61,85Z"/><path class="cls-1" d="M240.39,13.46V117.23a8.25,8.25,0,0,1-8.25,8.25H220.07V21.71a8.24,8.24,0,0,1,8.24-8.25Z"/><path class="cls-1" d="M538.1,13.46V117.23a8.25,8.25,0,0,1-8.25,8.25H517.78V21.71A8.25,8.25,0,0,1,526,13.46Z"/><path class="cls-1" d="M567.16,13.46V117.23a8.25,8.25,0,0,1-8.25,8.25H546.83V21.71a8.25,8.25,0,0,1,8.25-8.25Z"/><path class="cls-1" d="M405.24,97.63l9.28,5.27A8.29,8.29,0,0,1,416,116.24a42.87,42.87,0,0,1-29.43,11.32c-24.33,0-42.89-18.88-42.89-42.57s18.56-42.57,42.89-42.57A42.72,42.72,0,0,1,423,62.11l-11.68,6.73a8.16,8.16,0,0,1-9.72-1.11A21.18,21.18,0,0,0,386.52,62c-13.6,0-22.09,10.4-22.09,23S372.92,108,386.52,108C395.16,108,401.56,103.88,405.24,97.63Z"/><path class="cls-1" d="M117,74.75v42.48a8.25,8.25,0,0,1-8.25,8.25H96.66V78.91c0-10.08-4.16-16.8-13.6-16.8s-14.41,7.52-14.41,16.8v38.32a8.24,8.24,0,0,1-8.24,8.25H48.33V78.91c0-10.08-4.16-16.8-13.6-16.8s-14.41,7.52-14.41,16.8v38.32a8.25,8.25,0,0,1-8.25,8.25H0V52.59a8.25,8.25,0,0,1,8.25-8.25H20.32V53C24.49,47.06,31,42.42,41.77,42.42c11,0,18.24,5.12,22.4,12.8a28.67,28.67,0,0,1,24.49-12.8C107.38,42.42,117,57.62,117,74.75Z"/><path class="cls-2" d="M590,5.36a8.38,8.38,0,0,0-8.54,8.16,8.28,8.28,0,0,0,8.54,8A8.39,8.39,0,0,0,596.16,19l6.76.12c-2.8,4.72-7,7.78-12.88,7.78-7.9,0-14.15-6-14.15-13.39S582.14,0,590,0c5.87,0,10.08,3.06,12.88,7.78l-6.76.13A8.57,8.57,0,0,0,590,5.36"/><path class="cls-2" d="M618.36,5.36a8.39,8.39,0,0,0-8.55,8.16,8.29,8.29,0,0,0,8.55,8,8.52,8.52,0,0,0,7.39-4.21h-7.27V12.88h14v.64c0,7.4-6.38,13.39-14.15,13.39s-14.16-6-14.16-13.39S610.58,0,618.36,0c6,0,10.2,3.19,12.88,7.91h-6.76a8.37,8.37,0,0,0-6.12-2.55"/></g></svg>