<svg width="80" height="80" viewBox="0 0 80 80" fill="none" xmlns="http://www.w3.org/2000/svg">
<path d="M63.7227 80H16.2773C11.9627 79.992 7.82715 78.2746 4.77629 75.2237C1.72543 72.1729 0.00796783 68.0372 0 63.7226V16.2774C0.00796783 11.9628 1.72543 7.82724 4.77629 4.77638C7.82715 1.72552 11.9627 0.00796782 16.2773 0H63.7227C68.0373 0.00796782 72.1728 1.72552 75.2237 4.77638C78.2745 7.82724 79.992 11.9628 80 16.2774V63.7226C79.992 68.0372 78.2745 72.1729 75.2237 75.2237C72.1728 78.2746 68.0373 79.992 63.7227 80ZM16.2773 2.12514C12.5276 2.13707 8.93483 3.63188 6.28336 6.28335C3.63188 8.93483 2.13698 12.5277 2.12505 16.2774V63.7226C2.13698 67.4724 3.63188 71.0653 6.28336 73.7167C8.93483 76.3682 12.5276 77.8629 16.2773 77.8749H63.7227C67.4724 77.8629 71.0652 76.3682 73.7166 73.7167C76.3681 71.0653 77.863 67.4724 77.8749 63.7226V16.2774C77.863 12.5277 76.3681 8.93483 73.7166 6.28335C71.0652 3.63188 67.4724 2.13707 63.7227 2.12514H16.2773Z" fill="#990AE3"/>
<path d="M59.7434 42.5182H54.1518C54.2882 43.0554 54.6088 43.5277 55.0578 43.8528C55.5068 44.1778 56.0556 44.3349 56.6085 44.2967C56.9755 44.303 57.3394 44.2292 57.6751 44.0809C58.0108 43.9326 58.3103 43.7131 58.5527 43.4375L59.3063 43.8897C59.4391 43.9618 59.5514 44.0664 59.6326 44.1939C59.7137 44.3213 59.7611 44.4673 59.7701 44.6181C59.7792 44.7689 59.7496 44.9196 59.6843 45.0558C59.619 45.192 59.52 45.3095 59.3967 45.3969C58.5774 45.9625 57.604 46.2623 56.6085 46.2559C55.9935 46.2908 55.3779 46.1997 54.7994 45.9882C54.2209 45.7767 53.6917 45.4492 53.2444 45.0258C52.797 44.6024 52.4408 44.092 52.1977 43.526C51.9547 42.96 51.8298 42.3504 51.8308 41.7344C51.8142 41.1361 51.9197 40.5407 52.1411 39.9846C52.3624 39.4285 52.6949 38.9235 53.1181 38.5002C53.5413 38.077 54.0464 37.7447 54.6025 37.5233C55.1586 37.302 55.754 37.1963 56.3523 37.2129C56.9434 37.1947 57.5319 37.3007 58.0797 37.5237C58.6274 37.7467 59.1224 38.0818 59.5328 38.5078C59.9431 38.9337 60.2596 39.441 60.4621 39.9967C60.6645 40.5525 60.7483 41.1444 60.708 41.7344C60.6967 41.8495 60.6627 41.9612 60.608 42.063C60.5533 42.1648 60.479 42.2547 60.3892 42.3276C60.2995 42.4005 60.1963 42.4549 60.0854 42.4876C59.9745 42.5203 59.8583 42.5307 59.7434 42.5182ZM58.4623 40.8302C58.3946 40.3161 58.1346 39.8467 57.7347 39.5167C57.3348 39.1867 56.8246 39.0205 56.3071 39.0516C55.7951 39.0438 55.2971 39.2185 54.9022 39.5443C54.5073 39.8702 54.2413 40.326 54.1518 40.8302H58.4623Z" fill="#990AE3"/>
<path d="M28.7109 41.6588C28.7108 42.5498 28.4474 43.4209 27.9538 44.1628C27.4603 44.9046 26.7585 45.484 25.9367 45.8283C25.1149 46.1727 24.2096 46.2665 23.3347 46.0981C22.4597 45.9296 21.654 45.5064 21.0188 44.8816C20.3836 44.2568 19.9471 43.4581 19.7642 42.5861C19.5814 41.714 19.6602 40.8074 19.9909 39.98C20.3216 39.1526 20.8894 38.4414 21.6229 37.9356C22.3565 37.4299 23.2232 37.1522 24.1141 37.1373C24.7142 37.1273 25.3102 37.2368 25.8675 37.4595C26.4248 37.6822 26.9322 38.0137 27.3601 38.4346C27.788 38.8554 28.1277 39.3573 28.3597 39.9108C28.5916 40.4644 28.711 41.0587 28.7109 41.6588ZM26.4803 41.6588C26.4596 41.1959 26.3035 40.7491 26.0313 40.3741C25.759 39.9991 25.3827 39.7123 24.9489 39.5493C24.5151 39.3863 24.043 39.3541 23.5911 39.457C23.1393 39.5598 22.7276 39.7932 22.4072 40.1279C22.0867 40.4627 21.8716 40.8841 21.7885 41.34C21.7054 41.7959 21.7581 42.2662 21.9398 42.6924C22.1216 43.1187 22.4246 43.4821 22.8111 43.7378C23.1976 43.9934 23.6507 44.1299 24.1141 44.1304C24.4402 44.1436 24.7654 44.0885 25.0688 43.9683C25.3722 43.8482 25.647 43.6658 25.8756 43.4329C26.1042 43.2001 26.2815 42.9218 26.396 42.6162C26.5106 42.3107 26.5598 41.9846 26.5406 41.6588H26.4803Z" fill="#990AE3"/>
<path d="M41.9894 34V45.1077C41.9894 45.341 41.8978 45.5649 41.7343 45.7313C41.5708 45.8976 41.3485 45.9932 41.1152 45.9971H39.8191V44.9872C39.4847 45.3936 39.0595 45.7159 38.5778 45.9279C38.0962 46.14 37.5714 46.2358 37.0459 46.2079C35.8467 46.2079 34.6967 45.7316 33.8487 44.8837C33.0008 44.0357 32.5244 42.8856 32.5244 41.6865C32.5244 40.4873 33.0008 39.3374 33.8487 38.4895C34.6967 37.6415 35.8467 37.165 37.0459 37.165C37.5735 37.1327 38.101 37.2284 38.5838 37.4435C39.0666 37.6587 39.4903 37.9871 39.8191 38.401V34.9495C39.817 34.8322 39.8386 34.7156 39.8826 34.6068C39.9265 34.498 39.992 34.3992 40.075 34.3163C40.158 34.2333 40.2568 34.1678 40.3656 34.1238C40.4744 34.0799 40.5909 34.0583 40.7083 34.0603L41.9894 34ZM39.7135 41.6565C39.687 41.2005 39.5275 40.7622 39.2545 40.396C38.9816 40.0298 38.6073 39.7516 38.1779 39.5959C37.7486 39.4402 37.283 39.4138 36.8387 39.5199C36.3945 39.626 35.9911 39.86 35.6784 40.1929C35.3658 40.5259 35.1576 40.9432 35.0796 41.3932C35.0016 41.8432 35.0573 42.3063 35.2397 42.725C35.4221 43.1438 35.7232 43.4999 36.1058 43.7492C36.4885 43.9986 36.9358 44.1302 37.3926 44.1281C37.7118 44.1333 38.0285 44.0718 38.3225 43.9474C38.6165 43.823 38.8813 43.6385 39.0999 43.4058C39.3184 43.173 39.4859 42.8971 39.5916 42.5959C39.6973 42.2946 39.7388 41.9747 39.7135 41.6565Z" fill="#990AE3"/>
<path d="M31.8755 34V45.1077C31.8755 45.3436 31.7818 45.5698 31.6151 45.7366C31.4483 45.9034 31.2221 45.9971 30.9863 45.9971H29.7052V34.8892C29.7032 34.7731 29.7243 34.6579 29.7673 34.5501C29.8104 34.4423 29.8745 34.3442 29.9558 34.2614C30.0372 34.1787 30.1343 34.1129 30.2413 34.0681C30.3484 34.0232 30.4633 34 30.5793 34H31.8755Z" fill="#990AE3"/>
<path d="M63.7378 34.0001V45.1079C63.7379 45.3411 63.6463 45.565 63.4827 45.7314C63.3192 45.8977 63.0969 45.9933 62.8637 45.9972H61.5675V34.8893C61.5655 34.772 61.5871 34.6555 61.6311 34.5467C61.675 34.4379 61.7404 34.339 61.8234 34.256C61.9064 34.1731 62.0053 34.1078 62.1141 34.0638C62.2229 34.0198 62.3394 33.9981 62.4568 34.0001H63.7378Z" fill="#990AE3"/>
<path d="M66.8573 34V45.1077C66.8573 45.3436 66.7636 45.5698 66.5968 45.7366C66.4301 45.9034 66.2039 45.9971 65.9681 45.9971H64.6719V34.8892C64.6719 34.6533 64.7656 34.4273 64.9323 34.2605C65.0991 34.0938 65.3253 34 65.5611 34H66.8573Z" fill="#990AE3"/>
<path d="M49.5247 43.0131L50.5194 43.5707C50.656 43.637 50.7734 43.7374 50.8603 43.8619C50.9472 43.9865 51.0008 44.1312 51.0159 44.2823C51.031 44.4334 51.0071 44.5859 50.9466 44.7252C50.8861 44.8645 50.7909 44.9858 50.6701 45.0779C49.815 45.871 48.6864 46.3031 47.5202 46.2837C46.7424 46.2633 45.9829 46.0425 45.3154 45.6427C44.6479 45.2429 44.0949 44.6777 43.7098 44.0016C43.3247 43.3255 43.1206 42.5612 43.1172 41.7831C43.1139 41.0051 43.3114 40.2394 43.6906 39.5599C44.0698 38.8805 44.618 38.3106 45.282 37.905C45.9461 37.4995 46.7036 37.272 47.4812 37.2449C48.2588 37.2178 49.0302 37.392 49.7209 37.7503C50.4116 38.1086 50.9981 38.6391 51.4237 39.2904L50.1727 39.9987C50.0105 40.0932 49.8225 40.134 49.6357 40.115C49.4489 40.0961 49.2728 40.0184 49.1328 39.8933C48.9193 39.6863 48.6668 39.5236 48.39 39.415C48.1131 39.3063 47.8175 39.2537 47.5202 39.2602C46.8646 39.2602 46.2359 39.5207 45.7724 39.9842C45.3088 40.4477 45.0484 41.0765 45.0484 41.732C45.0484 42.3875 45.3088 43.0163 45.7724 43.4798C46.2359 43.9433 46.8646 44.2038 47.5202 44.2038C47.9313 44.2078 48.3356 44.0989 48.689 43.889C49.0425 43.679 49.3316 43.376 49.5247 43.0131Z" fill="#990AE3"/>
<path d="M18.6732 40.5567V45.0782C18.6693 45.3128 18.5744 45.5369 18.4085 45.7028C18.2425 45.8687 18.0186 45.9636 17.784 45.9675H16.4879V41.0089C16.4879 39.9238 16.0508 39.2155 14.9807 39.2155C14.7611 39.2262 14.546 39.2821 14.349 39.3798C14.152 39.4775 13.9772 39.6149 13.8358 39.7832C13.6943 39.9516 13.589 40.1475 13.5267 40.3584C13.4644 40.5693 13.4463 40.7907 13.4735 41.0089V45.1083C13.4736 45.3416 13.3819 45.5655 13.2184 45.7318C13.0549 45.8982 12.8326 45.9937 12.5994 45.9977H11.3032V41.0089C11.3032 39.9238 10.8662 39.2155 9.79607 39.2155C8.72599 39.2155 8.28891 40.0142 8.28891 41.0089V45.1083C8.28895 45.3416 8.1973 45.5655 8.03378 45.7318C7.87027 45.8982 7.64795 45.9937 7.41474 45.9977H6.10352V38.1905C6.10348 37.9573 6.19509 37.7334 6.3586 37.567C6.52212 37.4007 6.74443 37.3053 6.97765 37.3014H8.27383V38.2358C8.52765 37.8677 8.87137 37.5706 9.27233 37.3728C9.67329 37.1749 10.1181 37.0829 10.5647 37.1054C11.0559 37.0784 11.5445 37.1934 11.9721 37.4366C12.3998 37.6798 12.7483 38.0408 12.9762 38.4768C13.2571 38.0442 13.6444 37.6911 14.1009 37.4509C14.5574 37.2108 15.0679 37.0918 15.5836 37.1054C16.0202 37.1072 16.4515 37.2004 16.8498 37.3794C17.2481 37.5583 17.6044 37.819 17.8956 38.1444C18.1868 38.4697 18.4065 38.8524 18.5404 39.2679C18.6744 39.6835 18.7196 40.1225 18.6732 40.5567Z" fill="#990AE3"/>
<path fill-rule="evenodd" clip-rule="evenodd" d="M69.2989 33.1406C69.1755 33.1243 69.0501 33.1345 68.931 33.1706C68.8118 33.2066 68.7018 33.2677 68.6082 33.3497C68.5146 33.4318 68.4396 33.533 68.3882 33.6463C68.3368 33.7597 68.3103 33.8826 68.3103 34.0071C68.3103 34.1316 68.3368 34.2547 68.3882 34.3681C68.4396 34.4814 68.5146 34.5824 68.6082 34.6645C68.7018 34.7465 68.8118 34.8076 68.931 34.8437C69.0501 34.8797 69.1755 34.8901 69.2989 34.8738C69.5469 34.8735 69.7849 34.776 69.9621 34.6025H70.6855C70.559 34.8608 70.3612 35.0775 70.1155 35.2271C69.8699 35.3766 69.5865 35.4529 69.2989 35.4466C69.0734 35.5166 68.8345 35.5325 68.6016 35.4933C68.3687 35.4541 68.1482 35.3607 67.9581 35.2206C67.7679 35.0806 67.6133 34.8977 67.5068 34.6869C67.4002 34.4761 67.3447 34.2433 67.3447 34.0071C67.3447 33.7709 67.4002 33.5381 67.5068 33.3273C67.6133 33.1165 67.7679 32.9336 67.9581 32.7936C68.1482 32.6535 68.3687 32.5601 68.6016 32.5209C68.8345 32.4817 69.0734 32.4978 69.2989 32.5678C69.5849 32.5602 69.8671 32.6341 70.1127 32.7809C70.3582 32.9277 70.5569 33.1411 70.6855 33.3967H69.9621C69.8758 33.3087 69.7725 33.2393 69.6585 33.1926C69.5445 33.146 69.4221 33.1231 69.2989 33.1255" fill="#990AE3"/>
<path fill-rule="evenodd" clip-rule="evenodd" d="M72.3279 33.1423C72.2045 33.126 72.079 33.1362 71.9599 33.1723C71.8408 33.2084 71.7307 33.2694 71.6371 33.3515C71.5435 33.4335 71.4685 33.5347 71.4171 33.648C71.3657 33.7614 71.3392 33.8843 71.3392 34.0088C71.3392 34.1333 71.3657 34.2564 71.4171 34.3698C71.4685 34.4832 71.5435 34.5841 71.6371 34.6662C71.7307 34.7482 71.8408 34.8093 71.9599 34.8454C72.079 34.8815 72.2045 34.8919 72.3279 34.8755C72.4889 34.8768 72.6475 34.8355 72.7877 34.7561C72.9279 34.6768 73.0448 34.5621 73.1266 34.4233H72.4183V33.9411H73.9254C73.9254 34.2392 73.8371 34.5306 73.6715 34.7784C73.5058 35.0263 73.2705 35.2194 72.9951 35.3335C72.7197 35.4475 72.4166 35.4774 72.1242 35.4192C71.8319 35.361 71.5634 35.2175 71.3526 35.0067C71.1418 34.7959 70.9983 34.5275 70.9401 34.2351C70.8819 33.9428 70.9118 33.6397 71.0258 33.3643C71.1399 33.0889 71.3331 32.8535 71.5809 32.6878C71.8288 32.5222 72.1202 32.434 72.4183 32.434C72.7058 32.4277 72.9892 32.5037 73.2349 32.6533C73.4806 32.8028 73.6784 33.0195 73.8049 33.2779H73.0814C72.9958 33.1891 72.8925 33.1193 72.7784 33.0725C72.6642 33.0258 72.5416 33.0032 72.4183 33.0065" fill="#990AE3"/>
</svg>
