<svg width="80" height="80" viewBox="0 0 80 80" fill="none" xmlns="http://www.w3.org/2000/svg">
<path fill-rule="evenodd" clip-rule="evenodd" d="M33.6761 7.46819C21.0873 7.46819 10.8032 17.9151 10.8032 30.8926C10.8032 35.1711 12.2302 39.9395 14.5041 44.7821C16.7681 49.6036 19.8067 54.3629 22.8781 58.5863C25.9454 62.8039 29.0172 66.4489 31.3239 69.0406C32.249 70.08 33.0494 70.9481 33.6748 71.6137C34.0759 71.1862 34.5492 70.6751 35.0814 70.0887C36.8514 68.1387 39.2679 65.3619 41.8496 62.06C42.5531 61.1603 43.8529 61.0012 44.7527 61.7047C45.6524 62.4082 45.8115 63.708 45.108 64.6077C42.4505 68.0065 39.9657 70.8617 38.1441 72.8686C37.2328 73.8727 36.4861 74.6659 35.9651 75.2102C35.7045 75.4825 35.5003 75.6926 35.36 75.8358C35.2899 75.9075 35.2357 75.9624 35.1984 76L35.1554 76.0434L35.1402 76.0586L35.1391 76.0597C35.139 76.0599 35.1385 76.0604 33.6761 74.598C32.2154 76.062 32.215 76.0616 32.2145 76.0612L32.2087 76.0553L32.1929 76.0395L32.135 75.9812C32.0848 75.9305 32.0117 75.8563 31.9172 75.7596C31.7282 75.5663 31.4536 75.2829 31.1057 74.917C30.41 74.1853 29.4202 73.123 28.2342 71.7905C25.8645 69.1279 22.7011 65.3753 19.533 61.019C16.3692 56.6685 13.1725 51.6776 10.7601 46.5401C8.3576 41.4236 6.66699 36.0239 6.66699 30.8926C6.66699 15.7167 18.7181 3.33203 33.6761 3.33203C43.7191 3.33203 52.451 8.91743 57.0964 17.166C57.6569 18.1612 57.3044 19.4223 56.3092 19.9828C55.314 20.5433 54.0529 20.1909 53.4925 19.1957C49.5347 12.168 42.1355 7.46819 33.6761 7.46819ZM33.6761 74.598L32.2145 76.0612C33.0224 76.8673 34.3321 76.8667 35.1391 76.0597L33.6761 74.598ZM33.6614 17.9764C33.8504 19.1028 33.0905 20.1692 31.9641 20.3583C27.0601 21.1813 23.253 25.5595 23.253 30.8926C23.253 36.8386 27.9533 41.5777 33.6623 41.5777C35.4552 41.5777 37.1331 41.119 38.5907 40.2991C39.5862 39.7392 40.8471 40.0922 41.4071 41.0877C41.967 42.0832 41.614 43.3442 40.6185 43.9041C38.5466 45.0696 36.171 45.7139 33.6623 45.7139C25.5841 45.7139 19.1168 39.0371 19.1168 30.8926C19.1168 23.5691 24.3541 17.4415 31.2795 16.2792C32.4059 16.0901 33.4723 16.85 33.6614 17.9764Z" fill="#999999"/>
<path d="M75.7826 49.8093H48.3599L49.6834 45.5491L73.88 40.5857C74.7348 40.4065 75.3965 39.7309 75.562 38.8761L77.8645 26.3849C77.9747 25.7507 77.8093 25.1027 77.3957 24.6201C76.9959 24.1376 76.3754 23.848 75.7412 23.848H47.96L47.5464 20.1117C47.4223 19.0225 46.5124 18.1953 45.4094 18.1953H38.7778C37.5921 18.1953 36.627 19.1604 36.627 20.3461C36.627 21.5318 37.5921 22.4969 38.7778 22.4969H43.493L45.8092 43.5086L43.3689 51.3397C43.1621 51.9877 43.2862 52.7047 43.686 53.2561C44.0858 53.8076 44.7338 54.1247 45.4232 54.1247H48.3874C47.6981 54.6762 47.2569 55.5172 47.2569 56.4686C47.2569 58.1368 48.608 59.4742 50.2625 59.4742C51.917 59.4742 53.2681 58.123 53.2681 56.4686C53.2681 55.5172 52.8131 54.6762 52.1375 54.1247H70.0333C69.344 54.6762 68.889 55.5172 68.889 56.4686C68.889 58.1368 70.2401 59.4742 71.8946 59.4742C73.5491 59.4742 74.9002 58.123 74.9002 56.4686C74.9002 55.5172 74.4452 54.6762 73.7559 54.1247H75.7688C76.9545 54.1247 77.9196 53.1596 77.9196 51.9739C77.9196 50.7882 76.9545 49.8231 75.7688 49.8231L75.7826 49.8093ZM59.5413 39.138L56.839 39.6895L55.5568 28.1221H58.328L59.5413 39.1243V39.138ZM62.6572 28.1359H65.4284L66.4762 37.718L63.7739 38.2695L62.6572 28.1221V28.1359ZM71.6188 36.6701L70.7089 36.8632L69.7438 28.1497H73.1906L71.6188 36.6839V36.6701ZM51.2414 28.1359L52.6063 40.5581L49.904 41.1096L48.4702 28.1221H51.2414V28.1359Z" fill="#990AE3"/>
</svg>
