<svg width="80" height="80" viewBox="0 0 80 80" fill="none" xmlns="http://www.w3.org/2000/svg">
<g opacity="0.8">
<path d="M49.3751 20.5307C49.9471 20.5307 50.4957 20.3036 50.9002 19.8991C51.3047 19.4946 51.5319 18.9458 51.5319 18.3738V10.6236C51.5169 8.69234 50.7419 6.84471 49.3749 5.48038C48.0079 4.11604 46.1588 3.34462 44.2274 3.33334H17.8561C15.9376 3.35983 14.107 4.14174 12.7611 5.50916C11.4152 6.87658 10.6626 8.71938 10.6665 10.638V69.3336C10.6624 71.2549 11.4142 73.1006 12.7593 74.4726C14.1044 75.8446 15.935 76.6327 17.8561 76.6667H44.2416C46.1754 76.6516 48.0254 75.8747 49.3902 74.5045C50.7549 73.1344 51.5244 71.2818 51.5319 69.3479V61.6838C51.5319 61.1117 51.3047 60.563 50.9002 60.1585C50.4957 59.754 49.9471 59.5269 49.3751 59.5269C48.803 59.5269 48.2544 59.754 47.8499 60.1585C47.4454 60.563 47.2182 61.1117 47.2182 61.6838V69.3479C47.2182 70.1425 46.9035 70.9044 46.343 71.4676C45.7826 72.0308 45.022 72.3492 44.2274 72.353H17.8848C17.4921 72.3511 17.1036 72.2719 16.7415 72.1199C16.3793 71.9678 16.0505 71.746 15.7741 71.4669C15.4978 71.1878 15.2791 70.857 15.1305 70.4934C14.9819 70.1298 14.9066 69.7407 14.9085 69.3479V10.6236C14.9023 10.2335 14.9755 9.84609 15.1238 9.48518C15.2721 9.12426 15.4925 8.79744 15.7712 8.52435C16.3279 7.9754 17.0743 7.66123 17.8561 7.64707H23.9528C23.9751 8.20402 24.2122 8.73091 24.6143 9.11692C25.0164 9.50294 25.5522 9.71837 26.1096 9.71792H35.9881C36.5455 9.71837 37.0815 9.50294 37.4835 9.11692C37.8856 8.73091 38.1226 8.20402 38.1449 7.64707H44.2274C45.0183 7.65457 45.7746 7.97209 46.3339 8.53137C46.8932 9.09064 47.2107 9.84713 47.2182 10.638V18.331C47.2125 18.6178 47.2641 18.903 47.3699 19.1696C47.4757 19.4363 47.6336 19.6792 47.8345 19.884C48.0353 20.0889 48.275 20.2514 48.5396 20.3625C48.8041 20.4736 49.0882 20.5307 49.3751 20.5307Z" fill="#999999"/>
<path d="M63.007 24.8444H29.9352C28.3384 24.8482 26.8082 25.4843 25.6792 26.6133C24.5501 27.7424 23.9142 29.2727 23.9104 30.8695V49.2316C23.9142 50.8283 24.5501 52.3583 25.6792 53.4874C26.8082 54.6164 28.3384 55.2525 29.9352 55.2563H63.007C64.6038 55.2525 66.134 54.6164 67.263 53.4874C68.3921 52.3583 69.0282 50.8283 69.032 49.2316V30.8695C69.0282 29.2727 68.3921 27.7424 67.263 26.6133C66.134 25.4843 64.6038 24.8482 63.007 24.8444V24.8444ZM26.2972 33.0979V30.8695C26.2972 29.8932 26.6851 28.9567 27.3755 28.2664C28.0658 27.5761 29.0021 27.1883 29.9783 27.1883H63.0502C64.0265 27.1883 64.9628 27.5761 65.6531 28.2664C66.3434 28.9567 66.7312 29.8932 66.7312 30.8695V33.0979H26.2972ZM66.6882 38.8496V49.174C66.6844 50.1478 66.2947 51.0804 65.6048 51.7676C64.9149 52.4548 63.9808 52.8408 63.007 52.8407H29.9352C28.9614 52.8408 28.0273 52.4548 27.3374 51.7676C26.6475 51.0804 26.258 50.1478 26.2542 49.174V38.8496H66.6882Z" fill="#990AE3"/>
<path d="M34.306 49.2608H37.1818C37.4945 49.2608 37.7944 49.1365 38.0155 48.9154C38.2367 48.6943 38.3608 48.3944 38.3608 48.0816C38.3608 47.7689 38.2367 47.469 38.0155 47.2479C37.7944 47.0268 37.4945 46.9025 37.1818 46.9025H34.306C33.9933 46.9025 33.6934 47.0268 33.4722 47.2479C33.2511 47.469 33.1268 47.7689 33.1268 48.0816C33.1249 48.237 33.1541 48.3913 33.2126 48.5352C33.2712 48.6791 33.358 48.8097 33.4678 48.9196C33.5777 49.0295 33.7085 49.1163 33.8524 49.1748C33.9963 49.2334 34.1506 49.2628 34.306 49.2608V49.2608Z" fill="#990AE3"/>
<path d="M40.3733 49.2608H48.0805C48.3932 49.2608 48.6931 49.1365 48.9143 48.9154C49.1354 48.6943 49.2597 48.3944 49.2597 48.0816C49.2597 47.7689 49.1354 47.469 48.9143 47.2479C48.6931 47.0268 48.3932 46.9025 48.0805 46.9025H40.3733C40.0606 46.9025 39.7607 47.0268 39.5396 47.2479C39.3185 47.469 39.1943 47.7689 39.1943 48.0816C39.1943 48.3944 39.3185 48.6943 39.5396 48.9154C39.7607 49.1365 40.0606 49.2608 40.3733 49.2608V49.2608Z" fill="#990AE3"/>
</g>
</svg>
